<svg width="367" height="551" viewBox="0 0 367 551" fill="none" xmlns="http://www.w3.org/2000/svg">
<path d="M365.18 265.403V273.105L240.641 273.105V265.403C240.641 190.022 180.01 128.66 105.482 128.66C79.2495 128.66 53.8212 136.237 31.9659 150.623C30.3949 151.642 28.8275 152.732 27.3144 153.819L25.026 155.462H27.8432L89.6993 155.462L89.6993 274.58L-37.0787 274.58L-190.093 151.072L-190.093 1.59807L-72.3852 1.59807L-72.3852 71.819V73.9114L-70.8585 72.4805C-60.0064 62.3092 -48.3065 53.0937 -35.9039 44.932C6.19495 17.2376 55.0991 2.60645 105.482 2.60645C140.509 2.60645 174.54 9.56667 206.561 23.3153L206.563 23.316C237.494 36.5258 265.253 55.4703 289.091 79.5888C312.928 103.707 331.653 131.795 344.734 163.095L345.571 162.745L344.734 163.095C358.3 195.547 365.18 229.958 365.18 265.403Z" fill="url(#paint0_linear_2542_41453)" stroke="url(#paint1_linear_2542_41453)" stroke-width="1.81333"/>
<path d="M-190.093 285.751V278.03H-65.7858V285.751C-65.7858 361.304 -5.26884 422.811 69.1273 422.811C97.5616 422.811 124.68 413.925 147.376 397.443L149.634 395.803H146.843H85.8779V276.427H212.445L365.18 400.199V549.385L247.69 549.385V478.826V476.714L246.159 478.168C198.405 523.518 134.985 549.163 69.1273 549.163C34.1652 549.163 0.19722 542.187 -31.7894 528.431C-62.6652 515.141 -90.3733 496.177 -114.167 472.002C-137.936 447.827 -156.627 419.674 -169.685 388.3L-169.685 388.3C-183.226 355.772 -190.093 321.279 -190.093 285.751Z" fill="url(#paint2_linear_2542_41453)" stroke="url(#paint3_linear_2542_41453)" stroke-width="1.81333"/>
<defs>
<linearGradient id="paint0_linear_2542_41453" x1="-114.842" y1="14.6551" x2="108.737" y2="257.149" gradientUnits="userSpaceOnUse">
<stop stop-color="#2D3443"/>
<stop offset="1" stop-color="#2D3443" stop-opacity="0"/>
</linearGradient>
<linearGradient id="paint1_linear_2542_41453" x1="-224.663" y1="228.017" x2="-65.9718" y2="74.7091" gradientUnits="userSpaceOnUse">
<stop stop-color="#363F51"/>
<stop offset="1" stop-color="#404B61" stop-opacity="0.1"/>
</linearGradient>
<linearGradient id="paint2_linear_2542_41453" x1="-86.379" y1="369.956" x2="89.0452" y2="548.818" gradientUnits="userSpaceOnUse">
<stop stop-color="#2D3443"/>
<stop offset="1" stop-color="#2D3443" stop-opacity="0"/>
</linearGradient>
<linearGradient id="paint3_linear_2542_41453" x1="412.459" y1="491.428" x2="12.1967" y2="362.486" gradientUnits="userSpaceOnUse">
<stop stop-color="#363F51"/>
<stop offset="1" stop-color="#404B61" stop-opacity="0.1"/>
</linearGradient>
</defs>
</svg>
