<svg width="341" height="299" viewBox="0 0 341 299" fill="none" xmlns="http://www.w3.org/2000/svg">
<g clip-path="url(#clip0_2532_41410)">
<path d="M454.93 100.543V104.89H378.985V100.543C378.985 54.3427 341.513 16.7413 295.458 16.7413C279.249 16.7413 263.534 21.3838 250.028 30.2001C249.055 30.8254 248.086 31.494 247.152 32.1586L244.842 33.8039H247.678H285.396V105.791H207.846L113.907 30.6004V-60.0933L185.648 -60.0933V-17.5936V-15.5131L187.172 -16.9294C193.836 -23.1229 201.02 -28.7345 208.636 -33.7045C234.488 -50.5683 264.518 -59.478 295.458 -59.478C316.968 -59.478 337.865 -55.2396 357.528 -46.8677L357.53 -46.867C376.524 -38.8232 393.569 -27.2876 408.207 -12.6009C422.845 2.08586 434.343 19.1887 442.375 38.2474L443.211 37.8953L442.376 38.2475C450.705 58.0074 454.93 78.9604 454.93 100.543Z" fill="url(#paint0_linear_2532_41410)" stroke="url(#paint1_linear_2532_41410)" stroke-width="1.81333"/>
<path d="M113.907 112.961V108.603H189.709V112.961C189.709 159.265 227.11 196.957 273.085 196.957C290.656 196.957 307.415 191.512 321.442 181.411L323.722 179.769H320.912H283.742V107.625H361.163L454.93 182.975V273.494H383.323V230.787V228.688L381.795 230.127C352.471 257.742 313.526 273.358 273.085 273.358C251.615 273.358 230.757 269.11 211.115 260.734C192.155 252.641 175.141 241.093 160.53 226.373C145.933 211.651 134.457 194.508 126.439 175.405L126.439 175.405C118.124 155.598 113.907 134.596 113.907 112.961Z" fill="url(#paint2_linear_2532_41410)" stroke="url(#paint3_linear_2532_41410)" stroke-width="1.81333"/>
<g clip-path="url(#clip1_2532_41410)">
<path d="M314.551 181.508C314.551 205.826 294.838 225.539 270.52 225.539C246.202 225.539 226.488 205.826 226.488 181.508C226.488 157.19 246.202 137.476 270.52 137.476C294.838 137.476 314.551 157.19 314.551 181.508Z" fill="url(#paint4_linear_2532_41410)" stroke="url(#paint5_linear_2532_41410)" stroke-width="0.936842"/>
<g clip-path="url(#clip2_2532_41410)">
<path d="M283.131 192.26C268.963 199.002 260.17 193.361 254.542 189.934C254.193 189.718 253.601 189.985 254.115 190.575C255.99 192.848 262.135 198.329 270.157 198.329C278.184 198.329 282.959 193.949 283.556 193.185C284.15 192.427 283.731 192.009 283.131 192.26H283.131ZM287.11 190.062C286.73 189.567 284.797 189.474 283.58 189.624C282.362 189.769 280.533 190.513 280.692 190.961C280.773 191.128 280.94 191.053 281.777 190.978C282.616 190.894 284.967 190.597 285.457 191.238C285.949 191.883 284.707 194.955 284.481 195.45C284.261 195.945 284.564 196.073 284.976 195.743C285.382 195.413 286.117 194.559 286.61 193.35C287.1 192.135 287.399 190.439 287.11 190.062Z" fill="#FF9900"/>
<path fill-rule="evenodd" clip-rule="evenodd" d="M273.608 178.499C273.608 180.268 273.652 181.743 272.758 183.314C272.036 184.592 270.893 185.378 269.616 185.378C267.872 185.378 266.856 184.049 266.856 182.088C266.856 178.218 270.324 177.515 273.608 177.515V178.499ZM278.187 189.568C277.887 189.836 277.453 189.855 277.114 189.676C275.607 188.424 275.338 187.843 274.508 186.649C272.017 189.191 270.254 189.951 267.022 189.951C263.203 189.951 260.227 187.594 260.227 182.874C260.227 179.189 262.226 176.678 265.068 175.452C267.533 174.366 270.976 174.175 273.608 173.875V173.287C273.608 172.207 273.691 170.93 273.058 169.998C272.503 169.161 271.442 168.816 270.51 168.816C268.779 168.816 267.233 169.704 266.856 171.543C266.78 171.952 266.48 172.354 266.071 172.374L261.664 171.901C261.293 171.818 260.885 171.518 260.987 170.949C262.002 165.61 266.824 164 271.142 164C273.352 164 276.239 164.588 277.983 166.261C280.193 168.324 279.982 171.077 279.982 174.072V181.149C279.982 183.276 280.863 184.209 281.693 185.358C281.987 185.767 282.051 186.259 281.681 186.566C280.754 187.338 279.107 188.776 278.2 189.58L278.187 189.568" fill="white"/>
<path d="M283.131 192.26C268.963 199.002 260.17 193.361 254.542 189.934C254.193 189.718 253.601 189.985 254.115 190.575C255.99 192.848 262.135 198.329 270.157 198.329C278.184 198.329 282.959 193.949 283.556 193.185C284.15 192.427 283.731 192.009 283.131 192.26H283.131ZM287.11 190.062C286.73 189.567 284.797 189.474 283.58 189.624C282.362 189.769 280.533 190.513 280.692 190.961C280.773 191.128 280.94 191.053 281.777 190.978C282.616 190.894 284.967 190.597 285.457 191.238C285.949 191.883 284.707 194.955 284.481 195.45C284.261 195.945 284.564 196.073 284.976 195.743C285.382 195.413 286.117 194.559 286.61 193.35C287.1 192.135 287.399 190.439 287.11 190.062Z" fill="#FF9900"/>
<path fill-rule="evenodd" clip-rule="evenodd" d="M273.608 178.499C273.608 180.268 273.652 181.743 272.758 183.314C272.036 184.592 270.893 185.378 269.616 185.378C267.872 185.378 266.856 184.049 266.856 182.088C266.856 178.218 270.324 177.515 273.608 177.515V178.499ZM278.187 189.568C277.887 189.836 277.453 189.855 277.114 189.676C275.607 188.424 275.338 187.843 274.508 186.649C272.017 189.191 270.254 189.951 267.022 189.951C263.203 189.951 260.227 187.594 260.227 182.874C260.227 179.189 262.226 176.678 265.068 175.452C267.533 174.366 270.976 174.175 273.608 173.875V173.287C273.608 172.207 273.691 170.93 273.058 169.998C272.503 169.161 271.442 168.816 270.51 168.816C268.779 168.816 267.233 169.704 266.856 171.543C266.78 171.952 266.48 172.354 266.071 172.374L261.664 171.901C261.293 171.818 260.885 171.518 260.987 170.949C262.002 165.61 266.824 164 271.142 164C273.352 164 276.239 164.588 277.983 166.261C280.193 168.324 279.982 171.077 279.982 174.072V181.149C279.982 183.276 280.863 184.209 281.693 185.358C281.987 185.767 282.051 186.259 281.681 186.566C280.754 187.338 279.107 188.776 278.2 189.58L278.187 189.568" fill="white"/>
</g>
</g>
<rect width="351" height="261" rx="16" transform="matrix(1 0 0 -1 0 101)" fill="url(#paint6_linear_2532_41410)"/>
<g clip-path="url(#clip3_2532_41410)">
<path d="M122.548 224.291C122.548 247.564 103.681 266.431 80.4083 266.431C57.1352 266.431 38.2687 247.564 38.2687 224.291C38.2687 201.018 57.1352 182.152 80.4083 182.152C103.681 182.152 122.548 201.018 122.548 224.291Z" fill="url(#paint7_linear_2532_41410)" stroke="url(#paint8_linear_2532_41410)" stroke-width="0.904639"/>
<g clip-path="url(#clip4_2532_41410)">
<path d="M91.9375 228.927C90.1012 228.927 88.3762 228.152 86.8137 226.883L87.1912 225.093L87.2037 225.022C87.5487 223.12 88.6163 219.924 91.9363 219.924C94.4238 219.924 96.4412 221.943 96.4412 224.429C96.4412 226.909 94.4225 228.928 91.9363 228.928L91.9375 228.927ZM91.9375 215.365C87.7062 215.365 84.4175 218.113 83.0837 222.638C81.0525 219.584 79.5025 215.913 78.605 212.82H74.0475V224.675C74.0412 227.019 72.1462 228.914 69.8025 228.92C67.4587 228.914 65.5637 227.013 65.5575 224.675V212.82H61V224.675C61 229.532 64.9512 233.51 69.8025 233.51C74.6587 233.51 78.605 229.533 78.605 224.675V222.689C79.49 224.532 80.5775 226.407 81.8988 228.06L79.1062 241.179H83.7675L85.7925 231.66C87.5637 232.793 89.6012 233.509 91.9387 233.509C96.9388 233.509 101.001 229.42 101.001 224.427C101.001 219.427 96.9388 215.364 91.9387 215.364L91.9375 215.365Z" fill="white"/>
</g>
</g>
<g clip-path="url(#clip5_2532_41410)">
<path d="M199.827 131.592C199.827 149.947 184.947 164.827 166.592 164.827C148.237 164.827 133.357 149.947 133.357 131.592C133.357 113.237 148.237 98.3567 166.592 98.3567C184.947 98.3567 199.827 113.237 199.827 131.592Z" fill="url(#paint9_linear_2532_41410)" stroke="url(#paint10_linear_2532_41410)" stroke-width="0.713482"/>
<g clip-path="url(#clip6_2532_41410)">
<path d="M179.848 138.569C179.787 138.569 179.727 138.509 179.727 138.448V125.158C179.727 125.097 179.787 125.036 179.787 125.036L182.093 124.551C182.154 124.551 182.215 124.611 182.215 124.672V138.448C182.215 138.509 182.154 138.569 182.093 138.569H179.848Z" fill="#1C4396"/>
<path d="M150.66 138.873C149.749 138.873 148.9 138.631 148.171 138.206C147.443 137.781 146.836 137.113 146.412 136.385C145.987 135.596 145.805 134.686 145.805 133.715C145.805 132.744 145.987 131.834 146.412 131.045C146.836 130.256 147.443 129.649 148.171 129.224C148.9 128.739 149.749 128.496 150.66 128.496C151.388 128.496 152.055 128.617 152.602 128.921C153.026 129.164 153.451 129.467 153.755 129.831C153.815 129.892 153.997 129.892 153.997 129.77V124.915C153.997 124.855 154.058 124.794 154.058 124.794L156.364 124.309C156.425 124.309 156.486 124.369 156.486 124.43V138.509C156.486 138.57 156.425 138.631 156.364 138.631H154.301C154.24 138.631 154.179 138.57 154.179 138.57L153.997 137.478C153.997 137.356 153.876 137.356 153.815 137.417C153.512 137.781 153.148 138.084 152.723 138.388C152.177 138.691 151.509 138.873 150.66 138.873ZM151.206 136.628C152.055 136.628 152.723 136.385 153.208 135.839C153.755 135.293 153.997 134.565 153.997 133.715C153.997 132.865 153.755 132.137 153.208 131.591C152.662 131.045 151.995 130.741 151.206 130.741C150.417 130.741 149.749 130.984 149.203 131.53C148.657 132.076 148.414 132.805 148.414 133.654C148.414 134.504 148.657 135.232 149.203 135.778C149.689 136.325 150.417 136.628 151.206 136.628Z" fill="#1C4396"/>
<path d="M162.736 138.871C161.765 138.871 160.855 138.689 160.066 138.265C159.277 137.84 158.67 137.233 158.246 136.444C157.821 135.655 157.578 134.805 157.578 133.774C157.578 132.742 157.76 131.832 158.185 131.043C158.61 130.254 159.217 129.647 160.006 129.222C160.795 128.797 161.705 128.555 162.736 128.555C163.707 128.555 164.557 128.737 165.285 129.162C166.014 129.586 166.62 130.193 167.045 130.921C167.47 131.65 167.652 132.439 167.652 133.349C167.652 133.47 167.652 133.652 167.652 133.834C167.652 133.956 167.652 134.077 167.652 134.259C167.652 134.32 167.591 134.381 167.531 134.381H160.248C160.188 134.381 160.127 134.441 160.127 134.502C160.188 135.23 160.43 135.776 160.916 136.201C161.401 136.626 162.008 136.869 162.676 136.869C163.222 136.869 163.647 136.747 163.95 136.505C164.314 136.262 164.557 136.019 164.739 135.655C164.739 135.594 164.8 135.594 164.861 135.594H167.227C167.288 135.594 167.349 135.655 167.349 135.716C167.167 136.262 166.863 136.808 166.438 137.294C166.014 137.779 165.467 138.204 164.861 138.507C164.193 138.689 163.525 138.871 162.736 138.871ZM162.736 130.557C162.13 130.557 161.583 130.739 161.098 131.104C160.673 131.407 160.37 131.892 160.188 132.56C160.188 132.621 160.248 132.681 160.309 132.681H164.982C165.043 132.681 165.103 132.621 165.103 132.56C165.043 131.953 164.8 131.468 164.375 131.104C163.95 130.739 163.404 130.557 162.736 130.557Z" fill="#1C4396"/>
<path d="M173.783 138.871C172.812 138.871 171.902 138.689 171.113 138.265C170.324 137.84 169.717 137.233 169.293 136.444C168.868 135.655 168.625 134.805 168.625 133.774C168.625 132.742 168.807 131.832 169.232 131.043C169.657 130.254 170.264 129.647 171.052 129.222C171.841 128.797 172.752 128.555 173.783 128.555C174.754 128.555 175.604 128.737 176.332 129.162C177.06 129.586 177.667 130.193 178.092 130.921C178.517 131.65 178.699 132.439 178.699 133.349C178.699 133.47 178.699 133.652 178.699 133.834C178.699 133.956 178.699 134.077 178.699 134.259C178.699 134.32 178.638 134.381 178.578 134.381H171.295C171.235 134.381 171.174 134.441 171.174 134.502C171.235 135.23 171.477 135.776 171.963 136.201C172.448 136.626 173.055 136.869 173.723 136.869C174.269 136.869 174.694 136.747 174.997 136.505C175.361 136.262 175.604 136.019 175.786 135.655C175.786 135.594 175.847 135.594 175.907 135.594H178.274C178.335 135.594 178.396 135.655 178.396 135.716C178.213 136.262 177.91 136.808 177.485 137.294C177.06 137.779 176.514 138.204 175.907 138.507C175.301 138.689 174.572 138.871 173.783 138.871ZM173.844 130.557C173.237 130.557 172.691 130.739 172.206 131.104C171.781 131.407 171.477 131.892 171.295 132.56C171.295 132.621 171.356 132.681 171.417 132.681H176.089C176.15 132.681 176.211 132.621 176.211 132.56C176.15 131.953 175.907 131.468 175.483 131.104C174.997 130.739 174.451 130.557 173.844 130.557Z" fill="#1C4396"/>
<path d="M185.617 138.566C186.556 138.566 187.316 137.806 187.316 136.867C187.316 135.929 186.556 135.168 185.617 135.168C184.679 135.168 183.918 135.929 183.918 136.867C183.918 137.806 184.679 138.566 185.617 138.566Z" fill="#2C71F0"/>
</g>
</g>
<g clip-path="url(#clip7_2532_41410)">
<path d="M104.048 63.6455C104.048 82.1581 89.041 97.1656 70.5283 97.1656C52.0157 97.1656 37.0082 82.1581 37.0082 63.6455C37.0082 45.1329 52.0157 30.1254 70.5283 30.1254C89.041 30.1254 104.048 45.1329 104.048 63.6455Z" fill="url(#paint11_linear_2532_41410)" stroke="url(#paint12_linear_2532_41410)" stroke-width="0.719599"/>
<path d="M63.2278 76.7731H69.0662V63.1777H74.7067V76.7731H80.5451V58.1048H69.0662V56.9888C69.0662 55.7713 69.9568 54.9596 71.2432 54.9596H74.7067V49.8867H70.3526C66.0975 49.8867 63.2278 52.6261 63.2278 56.5829V58.1048H59.8633V63.1777H63.2278V76.7731Z" fill="#FBFCEF"/>
</g>
</g>
<defs>
<linearGradient id="paint0_linear_2532_41410" x1="159.868" y1="-52.4785" x2="296.213" y2="96.6481" gradientUnits="userSpaceOnUse">
<stop stop-color="#2D3443"/>
<stop offset="1" stop-color="#2D3443" stop-opacity="0"/>
</linearGradient>
<linearGradient id="paint1_linear_2532_41410" x1="92.2836" y1="77.7279" x2="189.151" y2="-16.6432" gradientUnits="userSpaceOnUse">
<stop stop-color="#363F51"/>
<stop offset="1" stop-color="#404B61" stop-opacity="0.1"/>
</linearGradient>
<linearGradient id="paint2_linear_2532_41410" x1="177.385" y1="164.349" x2="284.418" y2="274.4" gradientUnits="userSpaceOnUse">
<stop stop-color="#2D3443"/>
<stop offset="1" stop-color="#2D3443" stop-opacity="0"/>
</linearGradient>
<linearGradient id="paint3_linear_2532_41410" x1="484.375" y1="238.478" x2="238.441" y2="158.584" gradientUnits="userSpaceOnUse">
<stop stop-color="#363F51"/>
<stop offset="1" stop-color="#404B61" stop-opacity="0.1"/>
</linearGradient>
<linearGradient id="paint4_linear_2532_41410" x1="270.523" y1="226.015" x2="270.523" y2="137.008" gradientUnits="userSpaceOnUse">
<stop/>
<stop offset="0.458333" stop-color="#343434"/>
<stop offset="1" stop-color="#171717"/>
</linearGradient>
<linearGradient id="paint5_linear_2532_41410" x1="270.52" y1="137.008" x2="270.52" y2="226.008" gradientUnits="userSpaceOnUse">
<stop stop-color="#4A4A4A"/>
<stop offset="1" stop-color="#4A4A4A" stop-opacity="0"/>
</linearGradient>
<linearGradient id="paint6_linear_2532_41410" x1="171.5" y1="19.7158" x2="175.646" y2="130.513" gradientUnits="userSpaceOnUse">
<stop stop-color="#1B1F28" stop-opacity="0"/>
<stop offset="0.556791" stop-color="#1B1F28"/>
</linearGradient>
<linearGradient id="paint7_linear_2532_41410" x1="80.4118" y1="266.89" x2="80.4118" y2="181.699" gradientUnits="userSpaceOnUse">
<stop stop-color="#209510"/>
<stop offset="0.458333" stop-color="#14A800"/>
<stop offset="1" stop-color="#14A800"/>
</linearGradient>
<linearGradient id="paint8_linear_2532_41410" x1="80.4083" y1="181.699" x2="80.4083" y2="266.883" gradientUnits="userSpaceOnUse">
<stop stop-color="#178D07"/>
<stop offset="1" stop-color="#D3D3D3" stop-opacity="0"/>
<stop offset="1" stop-color="#178D07" stop-opacity="0"/>
</linearGradient>
<linearGradient id="paint9_linear_2532_41410" x1="166.595" y1="165.189" x2="166.595" y2="98" gradientUnits="userSpaceOnUse">
<stop stop-color="#D0D0D0"/>
<stop offset="0.458333" stop-color="#F2F2F2"/>
<stop offset="1" stop-color="#F3F3F3"/>
</linearGradient>
<linearGradient id="paint10_linear_2532_41410" x1="166.592" y1="98" x2="166.592" y2="165.184" gradientUnits="userSpaceOnUse">
<stop stop-color="#E7E7E7"/>
<stop offset="1" stop-color="#D3D3D3" stop-opacity="0"/>
<stop offset="1" stop-color="#E4E4E4" stop-opacity="0"/>
</linearGradient>
<linearGradient id="paint11_linear_2532_41410" x1="70.5311" y1="97.5311" x2="70.5311" y2="29.7656" gradientUnits="userSpaceOnUse">
<stop stop-color="#032A0F"/>
<stop offset="0.458333" stop-color="#003912"/>
<stop offset="1" stop-color="#013712"/>
</linearGradient>
<linearGradient id="paint12_linear_2532_41410" x1="70.5283" y1="29.7656" x2="70.5283" y2="97.5254" gradientUnits="userSpaceOnUse">
<stop stop-color="#002A0D"/>
<stop offset="1" stop-color="#D3D3D3" stop-opacity="0"/>
<stop offset="1" stop-color="#002A0D" stop-opacity="0"/>
</linearGradient>
<clipPath id="clip0_2532_41410">
<rect width="341" height="299" fill="white"/>
</clipPath>
<clipPath id="clip1_2532_41410">
<rect width="89" height="89" fill="white" transform="translate(226 137)"/>
</clipPath>
<clipPath id="clip2_2532_41410">
<rect width="35" height="35" fill="white" transform="translate(253 164)"/>
</clipPath>
<clipPath id="clip3_2532_41410">
<rect width="85" height="88" fill="white" transform="translate(125 182) rotate(90)"/>
</clipPath>
<clipPath id="clip4_2532_41410">
<rect width="40" height="40" fill="white" transform="translate(61 207)"/>
</clipPath>
<clipPath id="clip5_2532_41410">
<rect width="67.1837" height="67.1837" fill="white" transform="translate(200.184 98) rotate(90)"/>
</clipPath>
<clipPath id="clip6_2532_41410">
<rect width="41.5703" height="14.5648" fill="white" transform="translate(145.805 124.309)"/>
</clipPath>
<clipPath id="clip7_2532_41410">
<rect width="67.6136" height="70" fill="white" transform="translate(106 30) rotate(90)"/>
</clipPath>
</defs>
</svg>
