<svg width="341" height="335" viewBox="0 0 341 335" fill="none" xmlns="http://www.w3.org/2000/svg">
<g clip-path="url(#clip0_2531_41370)">
<path d="M150.638 94.2013C151.445 95.2666 153.132 94.8816 153.397 93.5716C153.625 92.4421 155.24 92.4421 155.468 93.5716C155.733 94.8816 157.42 95.2666 158.227 94.2013C158.923 93.2828 160.377 93.9832 160.093 95.1C159.764 96.3953 161.116 97.4739 162.306 96.8644C163.331 96.3388 164.338 97.6009 163.597 98.4837C162.738 99.5078 163.489 101.066 164.825 101.033C165.977 101.005 166.336 102.579 165.286 103.053C164.068 103.603 164.068 105.333 165.286 105.883C166.336 106.357 165.977 107.93 164.825 107.902C163.489 107.869 162.738 109.427 163.597 110.452C164.338 111.334 163.331 112.596 162.306 112.071C161.116 111.461 159.764 112.54 160.093 113.835C160.377 114.952 158.923 115.652 158.227 114.734C157.42 113.669 155.733 114.054 155.468 115.364C155.24 116.493 153.625 116.493 153.397 115.364C153.132 114.054 151.445 113.669 150.638 114.734C149.942 115.652 148.488 114.952 148.772 113.835C149.101 112.54 147.749 111.461 146.559 112.071C145.534 112.596 144.527 111.334 145.268 110.452C146.127 109.427 145.376 107.869 144.04 107.902C142.888 107.93 142.529 106.357 143.579 105.883C144.797 105.333 144.797 103.603 143.579 103.053C142.529 102.579 142.888 101.005 144.04 101.033C145.376 101.066 146.127 99.5078 145.268 98.4837C144.527 97.6009 145.534 96.3388 146.559 96.8644C147.749 97.4739 149.101 96.3953 148.772 95.1C148.488 93.9832 149.942 93.2828 150.638 94.2013Z" fill="url(#paint0_linear_2531_41370)" stroke="url(#paint1_linear_2531_41370)" stroke-width="0.495814"/>
<path d="M151.352 104.892L153.48 107.02L157.453 103.047" stroke="white" stroke-width="0.951294" stroke-linecap="round" stroke-linejoin="round"/>
<path d="M259.434 247.113C257.129 243.121 258.497 238.017 262.488 235.713C266.48 233.408 271.584 234.776 273.888 238.767C276.193 242.759 274.825 247.863 270.834 250.167C266.842 252.472 261.738 251.104 259.434 247.113Z" fill="url(#paint2_linear_2531_41370)" stroke="url(#paint3_linear_2531_41370)" stroke-width="0.179158"/>
<path opacity="0.17" d="M256.326 248.866C253.057 243.204 254.997 235.964 260.659 232.695C266.321 229.426 273.561 231.366 276.83 237.028C280.099 242.69 278.159 249.93 272.497 253.199C266.835 256.468 259.595 254.528 256.326 248.866Z" fill="url(#paint4_linear_2531_41370)" stroke="url(#paint5_linear_2531_41370)" stroke-width="0.179158"/>
<path d="M263.762 242.742L265.645 244.625L269.16 241.109" stroke="white" stroke-width="0.753311" stroke-linecap="round" stroke-linejoin="round"/>
<g filter="url(#filter0_f_2531_41370)">
<path d="M128.082 179.288L211.34 131.086" stroke="url(#paint6_linear_2531_41370)" stroke-width="14.0225" stroke-linecap="round" stroke-linejoin="round"/>
</g>
<g filter="url(#filter1_f_2531_41370)">
<path d="M-135.715 332.659L211.341 131.086" stroke="url(#paint7_linear_2531_41370)" stroke-width="14.0225" stroke-linecap="round" stroke-linejoin="round"/>
</g>
<path d="M-135.715 332.659L211.341 131.086" stroke="url(#paint8_linear_2531_41370)" stroke-width="14.0225" stroke-linecap="round" stroke-linejoin="round"/>
<g filter="url(#filter2_f_2531_41370)">
<path d="M229.746 174.024L146.488 222.227" stroke="url(#paint9_linear_2531_41370)" stroke-width="14.0225" stroke-linecap="round" stroke-linejoin="round"/>
</g>
<g filter="url(#filter3_f_2531_41370)">
<path d="M493.543 20.6535L146.487 222.227" stroke="url(#paint10_linear_2531_41370)" stroke-width="14.0225" stroke-linecap="round" stroke-linejoin="round"/>
</g>
<path d="M493.543 20.6535L146.487 222.227" stroke="url(#paint11_linear_2531_41370)" stroke-width="14.0225" stroke-linecap="round" stroke-linejoin="round"/>
<path d="M59.8501 262.409C61.3229 264.353 64.4002 263.65 64.8839 261.26C65.3008 259.199 68.246 259.199 68.663 261.26C69.1466 263.65 72.2239 264.353 73.6968 262.409C74.9666 260.733 77.6201 262.011 77.1017 264.049C76.5003 266.412 78.9681 268.38 81.1385 267.268C83.0096 266.309 84.8459 268.612 83.4947 270.223C81.9274 272.091 83.297 274.935 85.735 274.875C87.8368 274.823 88.4922 277.694 86.5759 278.559C84.3531 279.562 84.3532 282.719 86.5759 283.722C88.4922 284.587 87.8368 287.459 85.735 287.407C83.297 287.346 81.9274 290.19 83.4947 292.059C84.8459 293.669 83.0096 295.972 81.1385 295.013C78.9681 293.901 76.5003 295.869 77.1017 298.232C77.6201 300.27 74.9666 301.548 73.6968 299.872C72.2239 297.928 69.1466 298.631 68.663 301.021C68.246 303.082 65.3008 303.082 64.8839 301.021C64.4002 298.631 61.3229 297.928 59.8501 299.872C58.5803 301.548 55.9267 300.27 56.4452 298.232C57.0466 295.869 54.5788 293.901 52.4084 295.013C50.5373 295.972 48.701 293.669 50.0521 292.059C51.6194 290.19 50.2499 287.346 47.8119 287.407C45.7101 287.459 45.0547 284.587 46.971 283.722C49.1937 282.719 49.1937 279.562 46.971 278.559C45.0547 277.694 45.7101 274.823 47.8119 274.875C50.2499 274.935 51.6194 272.091 50.0521 270.223C48.701 268.612 50.5373 266.309 52.4084 267.268C54.5788 268.38 57.0466 266.412 56.4452 264.049C55.9267 262.011 58.5803 260.733 59.8501 262.409Z" fill="url(#paint12_linear_2531_41370)" stroke="url(#paint13_linear_2531_41370)" stroke-width="0.904639"/>
<path d="M61.1523 281.913L65.0359 285.796L72.2851 278.547" stroke="white" stroke-width="1.73569" stroke-linecap="round" stroke-linejoin="round"/>
</g>
<defs>
<filter id="filter0_f_2531_41370" x="84.2613" y="87.2652" width="170.899" height="135.845" filterUnits="userSpaceOnUse" color-interpolation-filters="sRGB">
<feFlood flood-opacity="0" result="BackgroundImageFix"/>
<feBlend mode="normal" in="SourceGraphic" in2="BackgroundImageFix" result="shape"/>
<feGaussianBlur stdDeviation="18.4045" result="effect1_foregroundBlur_2531_41370"/>
</filter>
<filter id="filter1_f_2531_41370" x="-200.569" y="66.2315" width="476.767" height="331.283" filterUnits="userSpaceOnUse" color-interpolation-filters="sRGB">
<feFlood flood-opacity="0" result="BackgroundImageFix"/>
<feBlend mode="normal" in="SourceGraphic" in2="BackgroundImageFix" result="shape"/>
<feGaussianBlur stdDeviation="28.9213" result="effect1_foregroundBlur_2531_41370"/>
</filter>
<filter id="filter2_f_2531_41370" x="102.668" y="130.203" width="170.899" height="135.845" filterUnits="userSpaceOnUse" color-interpolation-filters="sRGB">
<feFlood flood-opacity="0" result="BackgroundImageFix"/>
<feBlend mode="normal" in="SourceGraphic" in2="BackgroundImageFix" result="shape"/>
<feGaussianBlur stdDeviation="18.4045" result="effect1_foregroundBlur_2531_41370"/>
</filter>
<filter id="filter3_f_2531_41370" x="81.63" y="-44.2021" width="476.767" height="331.283" filterUnits="userSpaceOnUse" color-interpolation-filters="sRGB">
<feFlood flood-opacity="0" result="BackgroundImageFix"/>
<feBlend mode="normal" in="SourceGraphic" in2="BackgroundImageFix" result="shape"/>
<feGaussianBlur stdDeviation="28.9213" result="effect1_foregroundBlur_2531_41370"/>
</filter>
<linearGradient id="paint0_linear_2531_41370" x1="154.434" y1="121.735" x2="154.434" y2="87.2031" gradientUnits="userSpaceOnUse">
<stop stop-color="#209510"/>
<stop offset="0.458333" stop-color="#14A800"/>
<stop offset="1" stop-color="#14A800"/>
</linearGradient>
<linearGradient id="paint1_linear_2531_41370" x1="154.432" y1="87.2031" x2="154.432" y2="121.732" gradientUnits="userSpaceOnUse">
<stop stop-color="#178D07"/>
<stop offset="1" stop-color="#D3D3D3" stop-opacity="0"/>
<stop offset="1" stop-color="#178D07" stop-opacity="0"/>
</linearGradient>
<linearGradient id="paint2_linear_2531_41370" x1="262.442" y1="235.634" x2="270.878" y2="250.245" gradientUnits="userSpaceOnUse">
<stop stop-color="#0C44AD"/>
<stop offset="0.458333" stop-color="#2467E3"/>
<stop offset="1" stop-color="#0E54D7"/>
</linearGradient>
<linearGradient id="paint3_linear_2531_41370" x1="270.879" y1="250.245" x2="262.444" y2="235.635" gradientUnits="userSpaceOnUse">
<stop stop-color="#E7E7E7"/>
<stop offset="1" stop-color="#D3D3D3" stop-opacity="0"/>
<stop offset="1" stop-color="#E4E4E4" stop-opacity="0"/>
</linearGradient>
<linearGradient id="paint4_linear_2531_41370" x1="260.612" y1="232.616" x2="272.541" y2="253.277" gradientUnits="userSpaceOnUse">
<stop stop-color="#0C44AD"/>
<stop offset="0.458333" stop-color="#2467E3"/>
<stop offset="1" stop-color="#0E54D7"/>
</linearGradient>
<linearGradient id="paint5_linear_2531_41370" x1="272.542" y1="253.276" x2="260.614" y2="232.617" gradientUnits="userSpaceOnUse">
<stop stop-color="#E7E7E7"/>
<stop offset="1" stop-color="#D3D3D3" stop-opacity="0"/>
<stop offset="1" stop-color="#E4E4E4" stop-opacity="0"/>
</linearGradient>
<linearGradient id="paint6_linear_2531_41370" x1="211.34" y1="124.951" x2="99.1607" y2="195.94" gradientUnits="userSpaceOnUse">
<stop stop-color="#AD79EC"/>
<stop offset="1" stop-color="#AD79EC" stop-opacity="0"/>
</linearGradient>
<linearGradient id="paint7_linear_2531_41370" x1="211.341" y1="131.086" x2="-12.2148" y2="258.652" gradientUnits="userSpaceOnUse">
<stop stop-color="#AD79EC"/>
<stop offset="0.446654" stop-color="#2467E3"/>
<stop offset="0.880208" stop-color="#558FFA" stop-opacity="0"/>
</linearGradient>
<linearGradient id="paint8_linear_2531_41370" x1="211.341" y1="131.086" x2="13.2852" y2="248.652" gradientUnits="userSpaceOnUse">
<stop stop-color="#AD79EC"/>
<stop offset="0.446654" stop-color="#2467E3"/>
<stop offset="1" stop-color="#558FFA" stop-opacity="0"/>
</linearGradient>
<linearGradient id="paint9_linear_2531_41370" x1="146.488" y1="228.361" x2="258.667" y2="157.373" gradientUnits="userSpaceOnUse">
<stop stop-color="#AD79EC"/>
<stop offset="1" stop-color="#AD79EC" stop-opacity="0"/>
</linearGradient>
<linearGradient id="paint10_linear_2531_41370" x1="146.487" y1="222.227" x2="374.285" y2="81.1523" gradientUnits="userSpaceOnUse">
<stop stop-color="#AD79EC"/>
<stop offset="0.446654" stop-color="#2467E3"/>
<stop offset="0.880208" stop-color="#558FFA" stop-opacity="0"/>
</linearGradient>
<linearGradient id="paint11_linear_2531_41370" x1="146.487" y1="222.227" x2="346.285" y2="112.652" gradientUnits="userSpaceOnUse">
<stop stop-color="#AD79EC"/>
<stop offset="0.446654" stop-color="#2467E3"/>
<stop offset="0.880208" stop-color="#558FFA" stop-opacity="0.18"/>
</linearGradient>
<linearGradient id="paint12_linear_2531_41370" x1="66.7761" y1="312.646" x2="66.7761" y2="249.641" gradientUnits="userSpaceOnUse">
<stop stop-color="#209510"/>
<stop offset="0.458333" stop-color="#14A800"/>
<stop offset="1" stop-color="#14A800"/>
</linearGradient>
<linearGradient id="paint13_linear_2531_41370" x1="66.7734" y1="249.641" x2="66.7734" y2="312.641" gradientUnits="userSpaceOnUse">
<stop stop-color="#178D07"/>
<stop offset="1" stop-color="#D3D3D3" stop-opacity="0"/>
<stop offset="1" stop-color="#178D07" stop-opacity="0"/>
</linearGradient>
<clipPath id="clip0_2531_41370">
<rect width="341" height="335" fill="white"/>
</clipPath>
</defs>
</svg>
